<svg width="166" height="166" viewBox="0 0 166 166" fill="none" xmlns="http://www.w3.org/2000/svg">
<path d="M83 8C124.421 8 158 41.5786 158 83C158 124.421 124.421 158 83 158C41.5786 158 8 124.421 8 83C8 41.5786 41.5786 8 83 8ZM83 37.5C79.4101 37.5 76.5 40.4101 76.5 44V78.9473C76.5001 83.7821 79.0854 88.2481 83.2783 90.6553L106.764 104.137C109.877 105.924 113.849 104.849 115.637 101.736C117.424 98.6231 116.349 94.6506 113.236 92.8633L89.751 79.3809C89.5957 79.2917 89.5001 79.1263 89.5 78.9473V44C89.5 40.4101 86.5899 37.5 83 37.5Z" fill="#006ACD"/>
</svg>
